# xmcd
#
# Track frame offsets: 
#        150
#        31180
#        56826
#        84810
#        105321
#        132495
#        159432
#        178641
#        212549
#        240322
#        273484
#        293758
#
# Disc length: 4478 seconds
#
# Revision: 0
# Processed by: cddbd v1.5.2PL0 Copyright (c) Steve Scherf et al.
# Submitted via: ExactAudioCopy v1.0b4
#
DISCID=98117c0c
DTITLE=Chris O'Leary Band - Live At Blues Now
DYEAR=2014
DGENRE=Blues
TTITLE0=Give It
TTITLE1=Trouble
TTITLE2=Louisiana Woman
TTITLE3=Walk The Walk
TTITLE4=Water's Risin'
TTITLE5=I Wish You Would
TTITLE6=Mr. Used To Be
TTITLE7=Blues Is A Woman
TTITLE8=King Of The Jungle
TTITLE9=Tchoupitoulas
TTITLE10=Waiting For The Phone To Ring
TTITLE11=History
EXTD=
EXTT0=
EXTT1=
EXTT2=
EXTT3=
EXTT4=
EXTT5=
EXTT6=
EXTT7=
EXTT8=
EXTT9=
EXTT10=
EXTT11=
PLAYORDER=
